<?xml version="1.0" encoding="UTF-8"?>
<svg xmlns="http://www.w3.org/2000/svg" width="548" height="477" viewBox="0 0 548 477" fill="none">
  <path d="M328.939 225.566L58.2713 258.188C50.1223 258.188 43.5219 251.587 43.5219 243.438L27.2747 48.2434C27.2747 40.0945 33.8751 33.494 42.0241 33.494L331.123 10.3418C339.272 10.3418 345.872 16.9422 345.872 25.0912L354.275 209.522C354.275 217.671 349.198 222.317 328.939 225.541V225.566Z" fill="#646361" stroke="#1E1E1E" stroke-miterlimit="10"></path>
  <path d="M337.494 206.198L59.1344 232.193L44.0549 48.5744L329.092 26.9961L337.494 206.198Z" fill="#FF8DC1" stroke="#1E1E1E" stroke-miterlimit="10"></path>
  <path d="M464.934 299.263L168.956 336.987C162.076 337.748 152.378 335.971 147.301 333.026L60.7594 272.201C55.6822 269.256 51.8488 258.162 71.6247 256.563L349.198 222.292C356.077 221.53 365.775 223.307 370.852 226.252L468.183 292.535C473.26 295.48 471.813 298.501 464.934 299.263Z" fill="#B3B3B3" stroke="#1E1E1E" stroke-miterlimit="10"></path>
  <path d="M64.5162 284.895L147.326 343.08C152.403 346.025 162.101 347.802 168.981 347.04L464.959 309.316C464.959 309.316 470.797 304.721 471.229 295.912C471.229 295.912 472.752 298.273 458.612 300.076C444.472 301.878 186.269 335.109 175.733 336.124C165.198 337.14 155.602 338.841 143.594 330.412L60.759 272.202C60.759 272.202 55.631 269.054 56.9511 263.621C56.9511 263.621 54.514 267.124 56.0626 273.166C57.2811 277.964 60.429 282.052 64.4908 284.895H64.5162Z" fill="#999999" stroke="#1E1E1E" stroke-miterlimit="10"></path>
  <path d="M82.1851 263.899L130.394 301.927L406.672 263.619L356.813 230.795L82.1851 263.899Z" fill="#E0E0E0" stroke="#1E1E1E" stroke-miterlimit="10"></path>
  <path d="M235.213 298.019L332.468 282.914L362.221 300.329L255.929 314.977L235.213 298.019Z" fill="#E0E0E0" stroke="#1E1E1E" stroke-miterlimit="10"></path>
  <path d="M83.8859 318.176L57.3065 342.115L64.7447 350.493L93.3296 326.249L103.941 340.77C104.88 342.064 106.86 341.861 107.546 340.414L136.41 279.056L72.4621 302.538C71.5228 302.868 71.2436 304.061 71.9036 304.797L83.8859 318.176Z" fill="#0060DF" stroke="#1E1E1E" stroke-linecap="round" stroke-linejoin="round"></path>
  <path d="M471.255 309.366C471.255 309.366 485.446 302.181 498.139 298.12C514.157 292.992 529.516 289.869 523.373 283.573C523.373 283.573 523.703 287.838 511.416 289.133C505.475 289.767 491.234 291.011 484.684 293.855C478.134 296.698 469.757 303.171 469.757 303.171L471.255 309.366Z" fill="#1E1E1E"></path>
  <path d="M270.399 322.972C270.399 322.972 268.292 327.491 282.863 330.74C291.825 332.746 292.916 332.213 301.319 338.915C309.722 345.617 320.892 346.531 321.349 342.723C321.527 341.174 313.987 334.98 305.533 330.943C291.444 324.191 272.988 319.418 270.424 322.972H270.399Z" fill="#1E1E1E"></path>
  <path d="M78.6818 71.2446L89.7248 204.294L309.595 183.731L298.781 56.7236L78.6818 71.2446Z" fill="#FFFEFF" stroke="#1E1E1E" stroke-miterlimit="10"></path>
  <path d="M78.4534 68.9089L80.0528 87.9232L300.05 69.2643L298.933 50.4785L78.4534 68.9089Z" fill="#B2B3B7" stroke="#1E1E1E" stroke-miterlimit="10"></path>
  <path d="M456.201 191.804C449.245 199.776 457.673 228.284 462.192 244.785C462.192 244.785 467.269 284.439 468.183 292.562C468.183 292.562 472.524 321.807 477.17 355.749C482.196 392.635 499.51 427.592 506.922 451.937C506.922 451.937 453.307 459.096 418.02 469.479C382.733 479.862 333.204 474.734 333.204 474.734C333.204 474.734 333.204 453.841 332.976 419.443C332.925 412.791 327.594 367.274 327.772 360.394C327.949 353.515 324.471 322.366 322.567 291.928C320.664 261.489 294.287 230.772 294.287 230.772C296.902 228.792 331.3 197.008 331.3 197.008L338.205 210.438C338.205 210.438 348.335 216.683 372.147 211.529C394.233 206.731 404.133 197.973 404.133 197.973L412.638 183.731C412.638 183.731 422.335 185.458 428.555 185.991C436.12 186.651 456.251 191.804 456.251 191.804" fill="white"></path>
  <path d="M456.201 191.804C449.245 199.776 457.673 228.284 462.192 244.785C462.192 244.785 467.269 284.439 468.183 292.562C468.183 292.562 472.524 321.807 477.17 355.749C482.196 392.635 499.51 427.592 506.922 451.937C506.922 451.937 453.307 459.096 418.02 469.479C382.733 479.862 333.204 474.734 333.204 474.734C333.204 474.734 333.204 453.841 332.976 419.443C332.925 412.791 327.594 367.274 327.772 360.394C327.949 353.515 324.471 322.366 322.567 291.928C320.664 261.489 294.287 230.772 294.287 230.772C296.902 228.792 331.3 197.008 331.3 197.008L338.205 210.438C338.205 210.438 348.335 216.683 372.147 211.529C394.233 206.731 404.133 197.973 404.133 197.973L412.638 183.731C412.638 183.731 422.335 185.458 428.555 185.991C436.12 186.651 456.251 191.804 456.251 191.804" stroke="#1E1E1E" stroke-linecap="round" stroke-linejoin="round"></path>
  <path d="M340.871 199.494C340.871 199.494 354.986 204.673 369.887 201.22C384.789 197.768 394.944 189.847 395.832 188.553L405.53 191.447L404.083 197.971C404.083 197.971 392.583 207.922 372.096 211.527C351.609 215.132 338.155 210.436 338.155 210.436L334.499 205.46L340.846 199.469L340.871 199.494Z" fill="white" stroke="#1E1E1E" stroke-linecap="round" stroke-linejoin="round"></path>
  <path d="M163.041 168.701L264.281 155.145C264.281 155.145 290.784 157.379 301.015 151.692C301.015 151.692 313.733 154.992 318.379 150.169C318.379 150.169 348.106 104.423 343.968 95.6392C339.83 86.8555 323.786 91.5012 323.786 91.5012C323.786 91.5012 314.977 86.9571 303.096 90.2573C291.216 93.5575 265.322 104.423 257.046 109.602C249.912 114.044 174.617 108.104 153.749 109.855C138.01 111.176 130.876 125.57 131.359 144.736C131.765 160.78 144.153 171.011 163.066 168.701H163.041Z" fill="#FFECD0" stroke="#1E1E1E" stroke-linecap="round" stroke-linejoin="round"></path>
  <path d="M268.952 132.375C268.952 132.375 308.275 141.184 316.043 116.331C316.043 116.331 351.736 111.152 350.188 96.6563C349.096 86.5018 338.129 90.5636 331.63 93.9146C328.153 95.717 324.294 96.6563 320.384 96.5801C315.713 96.4786 304.34 94.9554 295.658 97.2148" fill="#FFECD0"></path>
  <path d="M268.952 132.375C268.952 132.375 308.275 141.184 316.043 116.331C316.043 116.331 351.736 111.152 350.188 96.6563C349.096 86.5018 338.129 90.5636 331.63 93.9146C328.153 95.717 324.294 96.6563 320.384 96.5801C315.713 96.4786 304.34 94.9554 295.658 97.2148" stroke="#1E1E1E" stroke-linecap="round" stroke-linejoin="round"></path>
  <path d="M347.725 103.713C347.725 103.713 357.829 110.643 347.725 117.878C346.05 119.097 330.97 121.509 334.626 111.583C334.626 111.583 345.695 107.089 347.725 103.713Z" fill="#FFECD0" stroke="#1E1E1E" stroke-linecap="round" stroke-linejoin="round"></path>
  <path d="M314.622 119.858C314.622 119.858 325.512 127.906 337.418 128.769C349.325 129.632 351.305 124.352 349.198 116.71C349.198 116.71 336.86 111.963 326.452 114.146L316.043 116.33L314.622 119.858Z" fill="#FFECD0" stroke="#1E1E1E" stroke-linecap="round" stroke-linejoin="round"></path>
  <path d="M304.365 129.86C304.365 129.86 318.099 142.02 325.36 143.746C332.62 145.472 337.038 145.269 339.525 140.192C342.267 134.607 339.373 130.926 330.64 127.524C321.907 124.122 314.622 119.832 314.622 119.832C314.622 119.832 310.433 127.549 304.365 129.834V129.86Z" fill="#FFECD0" stroke="#1E1E1E" stroke-linecap="round" stroke-linejoin="round"></path>
  <path d="M295.988 132.729C295.988 132.729 293.272 142.553 303.452 147.021C313.632 151.489 324.141 153.393 325.36 143.747C325.36 143.747 316.856 141.487 304.366 129.86C304.366 129.86 298.907 132.196 295.988 132.729Z" fill="#FFECD0" stroke="#1E1E1E" stroke-linecap="round" stroke-linejoin="round"></path>
  <path d="M347.725 103.713C347.725 103.713 358.21 111.658 358.718 119.046C359.225 126.433 349.934 137.806 351.889 145.422C353.92 153.343 355.468 160.146 355.468 160.146L360.215 159.308C360.215 159.308 357.524 148.088 356.636 144.737C355.468 140.294 364.277 126.56 363.109 116.583C361.942 106.607 354.25 103.078 349.172 101.605L347.7 103.713H347.725Z" fill="#FF8613" stroke="#1E1E1E" stroke-miterlimit="10"></path>
  <path d="M332.366 196.069C332.366 196.069 339.424 190.103 341.15 180.482C342.876 170.886 349.02 161.29 356.737 159.843C364.455 158.396 374.305 158.041 381.108 167.992C387.912 177.943 405.555 182.386 405.555 182.386V191.449C405.555 191.449 362.627 178.68 361.992 178.4C361.992 178.4 336.048 204.574 334.524 205.487C334.524 205.487 331.275 199.065 331.275 198.252C331.275 197.44 332.366 196.069 332.366 196.069Z" fill="#FF7C1A" stroke="#1E1E1E" stroke-miterlimit="10"></path>
  <path d="M326.655 201.121L331.275 196.602C331.275 196.602 339.069 216.428 349.121 223.486C359.174 230.543 368.415 234.351 384.154 226.202C399.894 218.053 405.53 194.698 405.53 191.423C405.53 188.148 404.997 181.192 404.997 181.192L412.612 183.731C412.612 183.731 415.227 191.601 408.627 208.457C402.026 225.288 391.237 233.437 372.756 237.169C354.275 240.901 328.559 218.866 326.655 201.121Z" fill="white" stroke="#1E1E1E" stroke-linecap="round" stroke-linejoin="round"></path>
  <path d="M271.465 322.922C271.465 322.922 296.115 325.892 303.68 329.877C310.509 333.482 320.105 342.723 320.105 342.723L325.335 327.999C325.335 327.999 323.685 300.709 322.568 291.95C321.451 283.192 320.613 271.464 312.058 257.4C303.503 243.336 294.287 230.795 294.287 230.795C294.287 230.795 291.977 240.696 289.896 248.286C287.814 255.902 283.346 270.271 280.68 283.421C278.903 292.255 272.988 312.666 271.465 322.896V322.922Z" fill="white" stroke="#1E1E1E" stroke-linecap="round" stroke-linejoin="round"></path>
  <path d="M474.834 203.683C465.771 195.535 456.201 191.828 456.201 191.828C447.671 206.146 459.222 241.864 461.887 260.853L469.731 303.198C469.731 303.198 477.779 293.246 494.331 291.951C510.883 290.657 509.867 288.956 523.347 285.757L502.302 255.421C493.239 238.412 479.937 208.329 474.809 203.734L474.834 203.683Z" fill="white" stroke="#1E1E1E" stroke-linecap="round" stroke-linejoin="round"></path>
  <path d="M395.985 326.958C417.057 326.958 434.14 309.876 434.14 288.803C434.14 267.73 417.057 250.647 395.985 250.647C374.912 250.647 357.829 267.73 357.829 288.803C357.829 309.876 374.912 326.958 395.985 326.958Z" fill="#3478BF" stroke="#1E1E1E" stroke-linecap="round" stroke-linejoin="round"></path>
  <path d="M391.364 260.828L397.66 269.561C397.939 269.941 398.396 270.043 398.751 269.84L402.839 267.301C403.575 266.844 404.565 267.53 404.514 268.494L403.752 283.853C403.752 284.158 404.108 284.335 404.286 284.107L410.429 275.12C410.784 274.587 411.597 274.765 411.825 275.425L412.993 278.7C413.222 279.36 413.856 279.791 414.491 279.69L420.787 278.674C421.65 278.547 422.361 279.563 421.98 280.4L419.06 286.595C418.781 287.204 418.984 287.991 419.543 288.422L422.158 290.403C422.818 290.885 422.843 291.9 422.234 292.357L413.704 298.526C413.222 298.882 413.145 299.643 413.552 300.151L415.151 302.233C415.709 302.943 415.506 303.984 414.77 304.34L401.239 310.508H401.265L386.109 308.909C385.271 308.833 384.687 307.919 384.916 307.056L385.576 304.593C385.728 303.984 385.373 303.299 384.764 303.121L374.279 299.999C373.517 299.77 373.162 298.805 373.568 298.145L375.218 295.505C375.574 294.947 375.447 294.134 374.939 293.652L369.71 288.752C368.999 288.092 369.253 286.899 370.116 286.772L376.412 285.757C377.021 285.655 377.452 285.071 377.402 284.386L377.173 280.959C377.122 280.273 377.808 279.867 378.366 280.248L387.734 286.747C387.988 286.925 388.267 286.645 388.14 286.341L381.235 272.201C380.803 271.312 381.438 270.373 382.327 270.576L387.201 271.693C387.607 271.794 387.988 271.541 388.089 271.109L390.425 260.98C390.526 260.548 391.059 260.447 391.339 260.828H391.364Z" fill="#F2A73B" stroke="#1E1E1E" stroke-linecap="round" stroke-linejoin="round"></path>
  <path d="M385.068 294.161L399.082 300.127L409.642 290.252" stroke="#1E1E1E" stroke-linecap="round" stroke-linejoin="round"></path>
  <path d="M402.585 317.033L394.969 280.375" stroke="#1E1E1E" stroke-linecap="round" stroke-linejoin="round"></path>
  <path d="M459.628 177.485H529.084C538.807 177.485 546.702 169.59 546.702 159.867V129.378C546.702 119.655 538.807 111.76 529.084 111.76H459.628C449.905 111.76 442.01 119.655 442.01 129.378V206.755L459.628 177.51V177.485Z" fill="#00BC80" stroke="#1E1E1E" stroke-miterlimit="10"></path>
  <path d="M509.283 126.636C502.404 123.234 494.356 132.907 494.356 132.907C494.356 132.907 486.309 123.234 479.429 126.636C471.61 130.495 471.864 139.761 479.429 150.88C486.994 161.999 494.356 167.28 494.356 167.28C494.356 167.28 501.693 161.999 509.283 150.88C516.848 139.761 517.102 130.495 509.283 126.636Z" fill="#FF3853" stroke="#1E1E1E" stroke-linecap="round" stroke-linejoin="round"></path>
  <path d="M95.1575 72.1068H20.0651C9.52978 72.1068 1 63.5771 1 53.0418V20.0651C1 9.52978 9.52978 1 20.0651 1H95.1575C105.693 1 114.223 9.52978 114.223 20.0651V53.0418V103.738L95.1575 72.1068Z" fill="white" stroke="#1E1E1E" stroke-linecap="round" stroke-linejoin="round"></path>
  <path d="M57.6114 62.7132C72.7114 62.7132 84.9523 50.4722 84.9523 35.3722C84.9523 20.2722 72.7114 8.03125 57.6114 8.03125C42.5114 8.03125 30.2704 20.2722 30.2704 35.3722C30.2704 50.4722 42.5114 62.7132 57.6114 62.7132Z" fill="#FFC000" stroke="#1E1E1E" stroke-linecap="round" stroke-linejoin="round"></path>
  <path d="M42.1764 35.0186C42.1764 35.0186 43.1665 49.2348 57.3827 49.2348C71.599 49.2348 73.0714 35.0186 73.0714 35.0186" stroke="#1E1E1E" stroke-linecap="round" stroke-linejoin="round"></path>
  <path d="M52.2546 35.0177C54.0352 35.0177 55.4787 32.6081 55.4787 29.6358C55.4787 26.6635 54.0352 24.2539 52.2546 24.2539C50.474 24.2539 49.0306 26.6635 49.0306 29.6358C49.0306 32.6081 50.474 35.0177 52.2546 35.0177Z" fill="#1E1E1E"></path>
  <path d="M62.8662 35.0177C64.6468 35.0177 66.0903 32.6081 66.0903 29.6358C66.0903 26.6635 64.6468 24.2539 62.8662 24.2539C61.0856 24.2539 59.6422 26.6635 59.6422 29.6358C59.6422 32.6081 61.0856 35.0177 62.8662 35.0177Z" fill="#1E1E1E"></path>
  <path d="M338.942 211.705C338.942 211.705 357.473 215.361 374.254 211.045C391.034 206.73 401.62 201.297 404.641 197.007C404.641 197.007 397.228 222.292 379.229 228.46C361.231 234.629 348.893 226.81 338.916 211.705H338.942Z" fill="#FFC000" stroke="#1E1E1E" stroke-linecap="round" stroke-linejoin="round"></path>
</svg>
